<?xml version="1.0" encoding="UTF-8" standalone="no"?>
<svg xmlns:rdf="http://www.w3.org/1999/02/22-rdf-syntax-ns#" xmlns="http://www.w3.org/2000/svg" height="301.59" width="135.62" version="1.1" xmlns:cc="http://creativecommons.org/ns#" xmlns:dc="http://purl.org/dc/elements/1.1/" viewBox="0 0 135.62512 301.5912">
 <rect rx="30.969" ry="30.729" height="298.6" width="132.62" y="1.3506" x="1.0967" fill="#fff"/>
 <g>
  <path fill="#c8102e" d="m88.26 9.8647c-4.3309 0.0004875-7.5065 0.017087-7.7031 0.043945l-0.47656 0.064941 1.0391 0.44629c1.3666 0.58674 2.8822 1.4939 3.6892 2.208 0.35755 0.31644 0.93868 1.0069 1.2915 1.5344 0.49092 0.734 0.74331 0.99406 1.0752 1.1082 1.0549 0.36265 1.8469 1.204 2.5522 2.7114 0.5408 1.1557 0.73871 2.2755 0.74121 4.1931 0.0035 2.6572-0.60472 5.0478-2.0551 8.0771l-0.66015 1.3784 0.47582 0.54052c1.0088 1.146 0.80128 2.1995-0.99975 5.0769-0.42721 0.68252-0.90898 1.4981-1.0706 1.8125-0.48252 0.93872-0.93612 1.3805-1.6724 1.6291l-0.67188 0.22705-0.87182 1.6701c-2.1136 4.0486-3.7134 6.2035-5.0712 6.831-0.25479 0.11776-0.52858 0.2982-0.60864 0.40088-0.24072 0.3087-0.44091 1.1323-0.43579 1.7932 0.009 1.1663 0.08559 1.2431 2.3404 2.3481 2.308 1.1311 4.052 2.149 5.1655 3.0154 0.70668 0.54978 0.76294 0.63054 0.76294 1.0911 0 0.40769 0.06191 0.53529 0.34375 0.70922 0.99225 0.61239 1.8081 1.1594 2.6045 1.7459 0.48722 0.35884 1.6404 1.1547 2.5625 1.7682 2.1435 1.4264 3.2881 2.3519 4.6184 3.7339 4.1809 4.3435 6.4822 10.705 7.1155 19.671 0.0704 0.99688 0.12849 3.3439 0.12915 5.2156l0.001 3.4031 0.43092 1.7219c0.4429 1.7704 0.89438 4.1154 1.5712 8.1594 0.46627 2.7856 0.91915 4.9668 1.2664 6.0994 0.1413 0.46091 0.93358 2.2162 1.7608 3.9006 1.9226 3.9151 2.5688 5.406 3.3312 7.6875 0.61469 1.8392 1.1204 4.0711 1.3171 5.8125 0.49591 4.3895 1.2206 7.8884 1.7549 8.4726 0.0805 0.088 0.78961 0.32844 1.5756 0.53443 0.78606 0.20598 1.7791 0.53803 2.2065 0.7378 0.73313 0.3426 0.80051 0.41148 1.1875 1.2153l0.41015 0.8523 1.4375 0.72583c0.79062 0.39926 1.5974 0.87738 1.7928 1.0625 0.46055 0.43636 0.80423 1.114 0.91015 1.794 0.0465 0.2985 0.25848 0.79585 0.47118 1.1052 0.84864 1.2343 2.1124 3.5918 2.2319 4.1636 0.0171 0.0819 0.0458-26.064 0.0637-58.101 0.0358-64.034 0.0877-59.494-0.71533-62.608-0.6648-2.5784-1.796-5.0812-3.3086-7.3208-3.695-5.47-9.325-9.0356-16.132-10.214-1.118-0.19362-2.504-0.21916-13.125-0.24267-1.6328-0.00361-3.2048-0.00529-4.6485-0.00513zm-1.8 79.205c-0.62241 0-5.0782 2.6725-7.6901 4.6122-1.0047 0.74615-1.1545 0.91271-1.5638 1.7385-0.63125 1.2725-3.02 7.2575-5.5225 13.836l-1.1416 3-0.04614 1.4062c-0.04248 1.2975-0.02816 1.4064 0.1836 1.4075 0.35356 0.002 1.4161 0.66255 2.0512 1.2756 1.2551 1.2115 2.0238 2.7399 3.0349 6.0356 0.79815 2.6014 2.7244 9.3344 4.3448 15.187l1.6396 5.9226 0.51514 1.8601-0.73096 0.7024-0.7312 0.70238 0.29126 1.0625c0.16024 0.58438 0.45314 1.6531 0.65088 2.375 2.3302 8.5069 3.4099 14.696 4.4802 25.688 0.51074 5.2449 0.89538 7.0632 2.1172 10.005 1.1812 2.8444 2.4586 5.3685 4.0732 8.0492 2.2949 3.8102 3.597 6.5335 4.3259 9.0479 0.7259 2.5036 1.657 7.2021 2.7295 13.772 1.4051 8.6079 1.8994 11.484 2.1125 12.295 0.19862 0.75655 0.40797 1.1255 1.4101 2.4841 1.7099 2.318 2.1108 2.9329 2.9544 4.533 1.3734 2.605 1.7196 4.1756 1.3504 6.125-0.11068 0.58438-0.42826 1.9906-0.70581 3.125-1.3239 5.4108-1.5715 7.9956-1.0073 10.513 0.0697 0.31084 0.35486 1.9512 0.63378 3.6452 0.56209 3.4139 0.92609 4.8478 1.4109 5.5561 0.42636 0.62304 0.84206 1.8934 0.83862 2.563-0.002 0.29435-0.11401 0.78037-0.25 1.0801-0.13599 0.2997-0.24731 0.63115-0.24731 0.73658 0 0.10541 0.55988 1.8852 1.2441 3.9551 0.68427 2.0699 1.3865 4.2696 1.5605 4.8884 1.3812 4.9094 1.3525 8.8899-0.0847 11.75-0.98681 1.9638-2.2036 3.2804-4.4219 4.7846-0.20075 0.13613-0.14334 0.14878 0.3894 0.085 0.83059-0.0995 2.373-0.49102 3.7192-0.94409 3.4796-1.1711 6.9684-3.4608 9.6006-6.3005 3.3728-3.6389 5.5689-8.4774 6.1109-13.464 0.0905-0.8329 0.13136-18.289 0.13061-55.625l-0.001-54.411-0.39966 0.875c-0.51238 1.122-1.7331 3.1744-2.4262 4.0794-1.992 2.6009-4.731 4.8176-7.7019 6.2334-6.9929 3.3324-15.132 2.6316-21.47-1.8484-1.5166-1.0722-3.8229-3.379-4.9019-4.9032-4.4072-6.2264-5.1529-14.294-1.9611-21.224 2.4052-5.2222 7.2132-9.4745 12.612-11.155 0.72188-0.22465 1.3626-0.45261 1.4239-0.50658 0.14279-0.12593-0.15561-0.86663-1.8084-4.488-1.315-2.8875-3.0475-6.47-5.8912-12.196-1.5575-3.1388-1.7888-3.815-2.7112-7.9288-0.88125-3.935-2.3425-11.444-3.6362-18.688-0.615-3.4388-0.58125-3.3125-0.88625-3.3125z"/>
  <path fill="#1d428a" d="m51.709 9.8208c-10.142 0.00575-20.469 0.05-21.32 0.12712-5.6638 0.51325-10.522 2.7077-14.522 6.5591-3.8644 3.7212-6.1061 8-7.1066 13.565-0.19944 1.1093-0.21562 8.7708-0.25512 120.69-0.028654 81.186-0.0008375 120.24 0.086914 121.81 0.35251 6.3108 2.5688 11.325 6.9363 15.694 4.1216 4.123 9.3069 6.5094 15.046 6.9242 1.7019 0.12305 71.774 0.15739 71.769 0.0352-0.002-0.0502-0.34443-0.31631-0.76122-0.59131-1.5778-1.041-2.8378-2.7652-3.2991-4.5154-0.56038-2.1258-0.52885-4.5351 0.13061-9.9846 0.57701-4.768 0.93016-8.5558 1.0142-10.881l0.08276-2.2938-0.67554-0.73168c-1.4332-1.552-1.7225-2.7018-1.0679-4.2464 0.18122-0.42761 0.32959-0.91239 0.32959-1.0774 0-0.45546-0.6672-2.6032-1.2876-4.145-0.72318-1.7972-1.8036-3.9414-3.4759-6.8978-2.3986-4.2405-2.8864-5.3829-2.8996-6.7898-0.0084-0.88606 0.16366-1.3322 0.78832-2.0438l0.3706-0.42187-0.35815-1.0486c-0.47386-1.3878-0.96328-2.5981-1.9536-4.8315l-0.81909-1.8471-1.1355-0.67358c-4.5825-2.725-10.149-6.9375-15.598-11.825-1.6162-1.45-4.4938-4.225-6.8812-6.625-1.4781-1.4902-3.7562-3.6498-5.0625-4.7989-2.3291-2.049-3.2065-2.9508-3.5999-3.6998-0.10831-0.20625-0.51969-0.74063-0.9143-1.1875-5.0779-5.7504-16.495-22.589-20.308-29.95-0.42364-0.81802-0.78232-1.5011-0.79688-1.518-0.01455-0.0169-1.3648-0.2235-3.0008-0.45923-1.636-0.23574-3.0158-0.47499-3.0661-0.53174-0.05038-0.0567-0.2979-0.79779-0.55005-1.6467-0.9911-3.3368-2.2584-6.141-5.8838-13.019-5.1719-9.812-6.5159-14.76-5.7556-21.188 0.48761-4.1226 1.8586-10.607 2.5532-12.074 0.41856-0.88445 1.3874-2.077 2.8732-3.5376l1.385-1.365v-1.5192-1.5195l-3.3438-0.003c-4.4295-0.004-5.6984-0.19316-6.6286-0.9895-0.56059-0.47983-0.6643-0.74046-1.158-2.9106-0.14589-0.64134-0.46315-1.6539-0.70508-2.25-0.9757-2.4042-1.037-3.3374-0.35962-5.4764 0.23647-0.74671 0.52169-1.7186 0.63379-2.1596 1.0038-3.9494 3.5379-9.9399 8.438-19.948 0.84152-1.7188 1.715-3.6594 1.9411-4.3125 1.4976-4.325 2.9158-7.7541 4.394-10.625 3.2704-6.3511 5.7802-10.14 8.367-12.63 1.3274-1.2781 2.3138-1.9675 3.8432-2.686 2.071-0.9729 3.6095-1.2835 8.6386-1.7446l3.373-0.30932 0.37695-0.42774 0.37671-0.42774 1.625-0.07764c5.3835-0.25761 7.3229-0.93522 8.2426-2.8796 0.45618-0.96426 0.65515-2.0016 1.1357-5.9216 0.24158-1.9704 0.45198-3.6669 0.46778-3.77 0.01774-0.11581-0.05377-0.17362-0.18701-0.15136-1.1443 0.19115-2.1081-2.356-2.1424-5.6611-0.02772-2.68 0.36472-3.2866 2.2154-3.4244l1.0175-0.0775 0.0275-0.9375c0.0604-2.0418 0.31468-5.01 0.54565-6.3686 0.53078-3.122 1.2373-4.6522 2.9175-6.3189 1.224-1.2141 2.4585-2.0216 4.2756-2.7964 0.6327-0.26975 0.9801-0.47958 0.88819-0.53638-0.12375-0.076875-10.086-0.10962-20.23-0.10375zm-28.238 227.38h3.987 3.987l0.19702 1.0938c0.10844 0.60156 0.48299 2.6688 0.83228 4.5938s0.85696 4.7375 1.1282 6.25c0.27121 1.5125 0.99912 5.5344 1.6176 8.9375 0.61855 3.4031 1.4155 7.8046 1.771 9.7812 0.35546 1.9766 0.66758 3.5724 0.6936 3.5464 0.03948-0.0395-0.14718-3.3232-0.39892-7.0151-0.09232-1.3538-0.17429-2.7409-0.2544-4.3125-0.0403-0.79062-0.09572-1.775-0.12329-2.1875s-0.08432-1.7906-0.12622-3.0625-0.10028-2.5938-0.12964-2.9375c-0.02936-0.34375-0.08808-3.789-0.13061-7.6562l-0.07739-7.0312h2.5756 2.5759v21.562 21.562h-3.6588-3.6585l-0.60522-3.2812c-0.3329-1.8048-1.018-5.5031-1.5225-8.2188-0.50445-2.7156-1.2888-6.9625-1.7429-9.4375-1.1837-6.4505-1.785-9.6614-2.1299-11.375l-0.30176-1.5 0.05884 1.1875c0.03246 0.65313 0.11552 2.8469 0.18432 4.875 0.06881 2.0281 0.15275 4.3625 0.18652 5.1875 0.04396 1.0735 0.10005 19.68 0.06738 22.344-0.0025 0.20095-0.20609 0.21875-2.5026 0.21875h-2.5v-21.562-21.562zm22.125 0 4.5938 0.001c2.5265 0 4.9594 0.0574 5.4062 0.12646 2.7014 0.41755 4.6199 1.9278 5.4885 4.3205 0.59764 1.6462 0.66012 2.4781 0.60645 8.052-0.04148 4.3068-0.08075 5.1745-0.26319 5.8125-0.35728 1.2495-0.8301 2.0809-1.6362 2.8762l-0.76148 0.75121 0.69605 0.68629c0.81259 0.801 1.2668 1.57 1.6538 2.8005 0.26972 0.85746 0.27856 1.054 0.27856 6.1358 0 5.8714-0.01161 5.9711-0.91309 7.8125-0.83546 1.7065-2.2894 2.8624-4.346 3.4551-0.62839 0.1811-1.5049 0.22128-5.7722 0.26416l-5.0312 0.0625v-21.575-21.575zm23.136 0h4.1084 4.1084l0.073 0.46875c0.04016 0.25781 0.38442 3.1688 0.76514 6.4688 0.38071 3.3 1.1672 10.078 1.7478 15.062 2.23 19.15 2.4362 20.925 2.4362 21.025 0 0.05-1.3475 0.1-2.995 0.1h-2.9944l-0.06445-0.40625c-0.03547-0.22344-0.17832-1.8688-0.31762-3.6562-0.1393-1.7875-0.28728-3.5735-0.32861-3.9688l-0.0752-0.71875h-2.5479c-2.5418 0-2.548 0.001-2.6058 0.28125-0.03185 0.15469-0.17685 1.8-0.32226 3.6562s-0.29706 3.6985-0.33716 4.0938l-0.073 0.71875h-2.8571-2.8571v-0.37426c0-0.30805 0.85491-7.5564 1.6882-14.314 0.10175-0.825 0.83219-6.9 1.623-13.5 1.6368-13.659 1.6755-13.979 1.7618-14.531l0.06323-0.40625zm3.7529 4.8404c-0.01911 0.00007-0.03839 0.0198-0.05957 0.043-0.02731 0.0298-0.08486 0.56045-0.12769 1.1792s-0.10716 1.4906-0.14306 1.9375c-0.03591 0.44687-0.23344 3.0625-0.43896 5.8125s-0.57539 7.3216-0.82178 10.159-0.42105 5.228-0.38842 5.3125c0.0436 0.11296 0.6067 0.15356 2.1265 0.15356 1.137 0 2.1004-0.0329 2.1406-0.073 0.04027-0.0401-0.09401-1.9526-0.29834-4.25-1.6396-18.435-1.8045-20.275-1.9892-20.274zm-21.139 0.6375v7.0512c0 3.8782 0.02351 7.0748 0.05225 7.1035s0.74592 0.0326 1.5938 0.009c1.7734-0.0497 2.2092-0.19481 2.6332-0.8767l0.2825-0.45v-5.6875c0-5.4628-0.0099-5.7041-0.25-6.1118-0.49801-0.84548-0.7647-0.94612-2.6335-0.9917l-1.6788-0.05zm0 18.864v6.6401 6.6401h1.4736c1.7832 0 2.405-0.23333 2.8315-1.0625 0.24734-0.48077 0.25732-0.69722 0.25732-5.625 0-4.9212-0.01001-5.1424-0.25341-5.5625-0.4117-0.7106-1.0027-0.9187-2.7779-0.97852l-1.5312-0.0375z"/>
 </g>
</svg>
